# xmcd
#
# Track frame offsets: 
#        150
#        17175
#        54450
#        74329
#        88729
#        106129
#        133735
#        154885
#
# Disc length: 2360 seconds
#
# Revision: 0
# Processed by: cddbd v1.5.2PL0 Copyright (c) Steve Scherf et al.
# Submitted via: ExactAudioCopy v0.95b3
#
DISCID=69093608
DTITLE=Charlie Daniels Band  - Way Down Yonder (FLAC)
DYEAR=1900
DGENRE=
TTITLE0=Ive Been Down
TTITLE1=Give This Fool Another Try
TTITLE2=Low Down Lady
TTITLE3=Land Of Opportunity
TTITLE4=Way Down Yonder
TTITLE5=Whiskey
TTITLE6=Ill Always Remember That Song
TTITLE7=Looking For Mary Jane
EXTD=
EXTT0=
EXTT1=
EXTT2=
EXTT3=
EXTT4=
EXTT5=
EXTT6=
EXTT7=
PLAYORDER=
